<svg width="1400" height="500" viewBox="0 0 1400 500" fill="none" xmlns="http://www.w3.org/2000/svg">
  <!-- Background Gradient -->
  <defs>
    <linearGradient id="libraryBg" x1="0%" y1="0%" x2="100%" y2="100%">
      <stop offset="0%" style="stop-color:#fbbf24;stop-opacity:0.1" />
      <stop offset="100%" style="stop-color:#1e40af;stop-opacity:0.1" />
    </linearGradient>
    <linearGradient id="shelfGradient" x1="0%" y1="0%" x2="0%" y2="100%">
      <stop offset="0%" style="stop-color:#92400e;stop-opacity:1" />
      <stop offset="100%" style="stop-color:#78350f;stop-opacity:1" />
    </linearGradient>
  </defs>
  
  <!-- Background -->
  <rect width="1400" height="500" fill="url(#libraryBg)"/>
  
  <!-- Library Interior -->
  <g transform="translate(50, 100)">
    <!-- Bookshelves -->
    <g>
      <!-- Shelf 1 -->
      <rect x="0" y="50" width="200" height="250" fill="url(#shelfGradient)" rx="5"/>
      <!-- Books on Shelf 1 -->
      <rect x="10" y="60" width="12" height="60" fill="#dc2626"/>
      <rect x="25" y="60" width="12" height="60" fill="#1e40af"/>
      <rect x="40" y="60" width="12" height="60" fill="#059669"/>
      <rect x="55" y="60" width="12" height="60" fill="#fbbf24"/>
      <rect x="70" y="60" width="12" height="60" fill="#7c3aed"/>
      <rect x="85" y="60" width="12" height="60" fill="#dc2626"/>
      <rect x="100" y="60" width="12" height="60" fill="#1e40af"/>
      <rect x="115" y="60" width="12" height="60" fill="#059669"/>
      <rect x="130" y="60" width="12" height="60" fill="#fbbf24"/>
      <rect x="145" y="60" width="12" height="60" fill="#7c3aed"/>
      <rect x="160" y="60" width="12" height="60" fill="#dc2626"/>
      <rect x="175" y="60" width="12" height="60" fill="#1e40af"/>
      
      <!-- Books on Shelf 1 - Second Row -->
      <rect x="10" y="130" width="12" height="60" fill="#059669"/>
      <rect x="25" y="130" width="12" height="60" fill="#fbbf24"/>
      <rect x="40" y="130" width="12" height="60" fill="#7c3aed"/>
      <rect x="55" y="130" width="12" height="60" fill="#dc2626"/>
      <rect x="70" y="130" width="12" height="60" fill="#1e40af"/>
      <rect x="85" y="130" width="12" height="60" fill="#059669"/>
      <rect x="100" y="130" width="12" height="60" fill="#fbbf24"/>
      <rect x="115" y="130" width="12" height="60" fill="#7c3aed"/>
      <rect x="130" y="130" width="12" height="60" fill="#dc2626"/>
      <rect x="145" y="130" width="12" height="60" fill="#1e40af"/>
      <rect x="160" y="130" width="12" height="60" fill="#059669"/>
      <rect x="175" y="130" width="12" height="60" fill="#fbbf24"/>
      
      <!-- Books on Shelf 1 - Third Row -->
      <rect x="10" y="200" width="12" height="60" fill="#7c3aed"/>
      <rect x="25" y="200" width="12" height="60" fill="#dc2626"/>
      <rect x="40" y="200" width="12" height="60" fill="#1e40af"/>
      <rect x="55" y="200" width="12" height="60" fill="#059669"/>
      <rect x="70" y="200" width="12" height="60" fill="#fbbf24"/>
      <rect x="85" y="200" width="12" height="60" fill="#7c3aed"/>
      <rect x="100" y="200" width="12" height="60" fill="#dc2626"/>
      <rect x="115" y="200" width="12" height="60" fill="#1e40af"/>
      <rect x="130" y="200" width="12" height="60" fill="#059669"/>
      <rect x="145" y="200" width="12" height="60" fill="#fbbf24"/>
      <rect x="160" y="200" width="12" height="60" fill="#7c3aed"/>
      <rect x="175" y="200" width="12" height="60" fill="#dc2626"/>
    </g>
    
    <!-- Shelf 2 -->
    <g transform="translate(250, 0)">
      <rect x="0" y="50" width="200" height="250" fill="url(#shelfGradient)" rx="5"/>
      <!-- Books on Shelf 2 - Similar pattern -->
      <rect x="10" y="60" width="12" height="60" fill="#1e40af"/>
      <rect x="25" y="60" width="12" height="60" fill="#fbbf24"/>
      <rect x="40" y="60" width="12" height="60" fill="#dc2626"/>
      <rect x="55" y="60" width="12" height="60" fill="#059669"/>
      <rect x="70" y="60" width="12" height="60" fill="#7c3aed"/>
      <rect x="85" y="60" width="12" height="60" fill="#1e40af"/>
      <rect x="100" y="60" width="12" height="60" fill="#fbbf24"/>
      <rect x="115" y="60" width="12" height="60" fill="#dc2626"/>
      <rect x="130" y="60" width="12" height="60" fill="#059669"/>
      <rect x="145" y="60" width="12" height="60" fill="#7c3aed"/>
      <rect x="160" y="60" width="12" height="60" fill="#1e40af"/>
      <rect x="175" y="60" width="12" height="60" fill="#fbbf24"/>
    </g>
  </g>
  
  <!-- Reading Area -->
  <g transform="translate(600, 200)">
    <!-- Table -->
    <ellipse cx="100" cy="80" rx="80" ry="40" fill="#92400e"/>
    <rect x="20" y="75" width="160" height="10" fill="#78350f"/>
    
    <!-- Chairs -->
    <rect x="30" y="40" width="30" height="40" fill="#374151" rx="5"/>
    <rect x="140" y="40" width="30" height="40" fill="#374151" rx="5"/>
    
    <!-- Books on Table -->
    <rect x="60" y="70" width="15" height="3" fill="#dc2626"/>
    <rect x="80" y="68" width="15" height="3" fill="#1e40af"/>
    <rect x="100" y="72" width="15" height="3" fill="#059669"/>
    <rect x="120" y="69" width="15" height="3" fill="#fbbf24"/>
  </g>
  
  <!-- Computer Area -->
  <g transform="translate(900, 180)">
    <!-- Desk -->
    <rect x="0" y="80" width="120" height="60" fill="#92400e" rx="5"/>
    <!-- Computer Monitor -->
    <rect x="20" y="50" width="80" height="50" fill="#374151" rx="3"/>
    <rect x="25" y="55" width="70" height="40" fill="#1e40af" opacity="0.8"/>
    <!-- Keyboard -->
    <rect x="30" y="105" width="60" height="15" fill="#6b7280" rx="2"/>
  </g>
  
  <!-- Decorative Elements -->
  <g transform="translate(1100, 150)">
    <!-- Open Book -->
    <path d="M0,50 Q25,30 50,50 Q75,30 100,50 L100,80 Q75,60 50,80 Q25,60 0,80 Z" fill="#fbbf24"/>
    <line x1="50" y1="30" x2="50" y2="80" stroke="#1e40af" stroke-width="2"/>
    
    <!-- Floating Knowledge Symbols -->
    <g opacity="0.6">
      <text x="20" y="20" font-family="serif" font-size="16" fill="#1e40af">∑</text>
      <text x="60" y="25" font-family="serif" font-size="14" fill="#fbbf24">π</text>
      <text x="80" y="15" font-family="serif" font-size="12" fill="#059669">∞</text>
    </g>
  </g>
  
  <!-- Light Rays -->
  <g opacity="0.3">
    <path d="M1200,0 L1300,100 L1200,20 Z" fill="#fbbf24"/>
    <path d="M1250,0 L1350,100 L1250,20 Z" fill="#fbbf24"/>
    <path d="M1300,0 L1400,100 L1300,20 Z" fill="#fbbf24"/>
  </g>
</svg>
