<svg width="1400" height="500" viewBox="0 0 1400 500" fill="none" xmlns="http://www.w3.org/2000/svg">
  <!-- Background Gradient -->
  <defs>
    <linearGradient id="bgGradient" x1="0%" y1="0%" x2="100%" y2="100%">
      <stop offset="0%" style="stop-color:#1e40af;stop-opacity:0.1" />
      <stop offset="100%" style="stop-color:#fbbf24;stop-opacity:0.1" />
    </linearGradient>
    <linearGradient id="buildingGradient" x1="0%" y1="0%" x2="0%" y2="100%">
      <stop offset="0%" style="stop-color:#1e40af;stop-opacity:0.8" />
      <stop offset="100%" style="stop-color:#1e3a8a;stop-opacity:0.9" />
    </linearGradient>
  </defs>
  
  <!-- Background -->
  <rect width="1400" height="500" fill="url(#bgGradient)"/>
  
  <!-- University Building -->
  <g transform="translate(100, 150)">
    <!-- Main Building -->
    <rect x="0" y="100" width="300" height="200" fill="url(#buildingGradient)" rx="5"/>
    <!-- Roof -->
    <polygon points="0,100 150,50 300,100" fill="#1e3a8a"/>
    <!-- Windows -->
    <rect x="30" y="130" width="40" height="50" fill="#fbbf24" opacity="0.8"/>
    <rect x="80" y="130" width="40" height="50" fill="#fbbf24" opacity="0.8"/>
    <rect x="130" y="130" width="40" height="50" fill="#fbbf24" opacity="0.8"/>
    <rect x="180" y="130" width="40" height="50" fill="#fbbf24" opacity="0.8"/>
    <rect x="230" y="130" width="40" height="50" fill="#fbbf24" opacity="0.8"/>
    
    <rect x="30" y="200" width="40" height="50" fill="#fbbf24" opacity="0.6"/>
    <rect x="80" y="200" width="40" height="50" fill="#fbbf24" opacity="0.6"/>
    <rect x="130" y="200" width="40" height="50" fill="#fbbf24" opacity="0.6"/>
    <rect x="180" y="200" width="40" height="50" fill="#fbbf24" opacity="0.6"/>
    <rect x="230" y="200" width="40" height="50" fill="#fbbf24" opacity="0.6"/>
    
    <!-- Door -->
    <rect x="135" y="250" width="30" height="50" fill="#1e3a8a"/>
    
    <!-- Flag Pole -->
    <rect x="320" y="80" width="3" height="120" fill="#374151"/>
    <rect x="323" y="80" width="30" height="20" fill="#dc2626"/>
    <polygon points="323,80 353,90 323,100" fill="#dc2626"/>
  </g>
  
  <!-- Students -->
  <g transform="translate(500, 250)">
    <!-- Student 1 -->
    <circle cx="20" cy="20" r="8" fill="#fbbf24"/>
    <rect x="15" y="28" width="10" height="25" fill="#1e40af" rx="2"/>
    <rect x="12" y="35" width="16" height="15" fill="#374151" rx="2"/>
    
    <!-- Student 2 -->
    <circle cx="50" cy="25" r="8" fill="#fbbf24"/>
    <rect x="45" y="33" width="10" height="25" fill="#dc2626" rx="2"/>
    <rect x="42" y="40" width="16" height="15" fill="#374151" rx="2"/>
    
    <!-- Student 3 -->
    <circle cx="80" cy="22" r="8" fill="#fbbf24"/>
    <rect x="75" y="30" width="10" height="25" fill="#059669" rx="2"/>
    <rect x="72" y="37" width="16" height="15" fill="#374151" rx="2"/>
  </g>
  
  <!-- Books -->
  <g transform="translate(700, 200)">
    <rect x="0" y="0" width="15" height="80" fill="#1e40af" rx="2"/>
    <rect x="20" y="5" width="15" height="75" fill="#dc2626" rx="2"/>
    <rect x="40" y="10" width="15" height="70" fill="#059669" rx="2"/>
    <rect x="60" y="3" width="15" height="77" fill="#fbbf24" rx="2"/>
  </g>
  
  <!-- Trees -->
  <g transform="translate(900, 200)">
    <!-- Tree 1 -->
    <rect x="15" y="60" width="8" height="40" fill="#92400e"/>
    <circle cx="19" cy="50" r="25" fill="#059669" opacity="0.8"/>
    
    <!-- Tree 2 -->
    <rect x="65" y="65" width="8" height="35" fill="#92400e"/>
    <circle cx="69" cy="55" r="20" fill="#059669" opacity="0.8"/>
  </g>
  
  <!-- Decorative Elements -->
  <g transform="translate(1100, 100)">
    <!-- Graduation Cap -->
    <rect x="0" y="20" width="40" height="8" fill="#1e40af"/>
    <polygon points="0,20 20,0 40,20" fill="#1e40af"/>
    <rect x="35" y="0" width="2" height="15" fill="#fbbf24"/>
    <rect x="37" y="0" width="8" height="3" fill="#fbbf24"/>
  </g>
  
  <!-- Abstract Geometric Shapes -->
  <g opacity="0.3">
    <circle cx="1200" cy="100" r="30" fill="#fbbf24"/>
    <rect x="1250" y="150" width="40" height="40" fill="#1e40af" transform="rotate(45 1270 170)"/>
    <polygon points="1300,200 1320,180 1340,200 1320,220" fill="#059669"/>
  </g>
</svg>
