<svg width="400" height="300" viewBox="0 0 400 300" fill="none" xmlns="http://www.w3.org/2000/svg">
  <!-- Background Gradient -->
  <defs>
    <linearGradient id="itBg" x1="0%" y1="0%" x2="100%" y2="100%">
      <stop offset="0%" style="stop-color:#1e40af;stop-opacity:0.1" />
      <stop offset="100%" style="stop-color:#7c3aed;stop-opacity:0.1" />
    </linearGradient>
  </defs>
  
  <!-- Background -->
  <rect width="400" height="300" fill="url(#itBg)"/>
  
  <!-- Computer Setup -->
  <g transform="translate(50, 80)">
    <!-- Monitor -->
    <rect x="0" y="0" width="120" height="80" fill="#374151" rx="5"/>
    <rect x="5" y="5" width="110" height="70" fill="#1e40af" rx="3"/>
    
    <!-- Screen Content - Code -->
    <rect x="10" y="10" width="100" height="3" fill="#fbbf24"/>
    <rect x="10" y="16" width="80" height="2" fill="#ffffff"/>
    <rect x="10" y="20" width="90" height="2" fill="#ffffff"/>
    <rect x="10" y="24" width="70" height="2" fill="#ffffff"/>
    <rect x="10" y="28" width="85" height="2" fill="#ffffff"/>
    
    <!-- Syntax highlighting -->
    <rect x="15" y="35" width="20" height="2" fill="#059669"/>
    <rect x="40" y="35" width="15" height="2" fill="#dc2626"/>
    <rect x="60" y="35" width="25" height="2" fill="#fbbf24"/>
    
    <rect x="15" y="40" width="30" height="2" fill="#7c3aed"/>
    <rect x="50" y="40" width="20" height="2" fill="#059669"/>
    
    <!-- Monitor Stand -->
    <rect x="50" y="85" width="20" height="15" fill="#6b7280"/>
    <rect x="40" y="100" width="40" height="5" fill="#374151"/>
    
    <!-- Keyboard -->
    <rect x="20" y="110" width="80" height="20" fill="#374151" rx="3"/>
    <!-- Keys -->
    <rect x="25" y="115" width="8" height="6" fill="#6b7280" rx="1"/>
    <rect x="35" y="115" width="8" height="6" fill="#6b7280" rx="1"/>
    <rect x="45" y="115" width="8" height="6" fill="#6b7280" rx="1"/>
    <rect x="55" y="115" width="8" height="6" fill="#6b7280" rx="1"/>
    <rect x="65" y="115" width="8" height="6" fill="#6b7280" rx="1"/>
    <rect x="75" y="115" width="8" height="6" fill="#6b7280" rx="1"/>
    <rect x="85" y="115" width="8" height="6" fill="#6b7280" rx="1"/>
    
    <!-- Mouse -->
    <ellipse cx="110" cy="120" rx="8" ry="12" fill="#374151"/>
    <rect x="108" y="115" width="4" height="8" fill="#6b7280" rx="2"/>
  </g>
  
  <!-- Server Rack -->
  <g transform="translate(220, 100)">
    <rect x="0" y="0" width="60" height="120" fill="#374151" rx="3"/>
    
    <!-- Server Units -->
    <rect x="5" y="10" width="50" height="15" fill="#1e40af" rx="2"/>
    <rect x="5" y="30" width="50" height="15" fill="#059669" rx="2"/>
    <rect x="5" y="50" width="50" height="15" fill="#fbbf24" rx="2"/>
    <rect x="5" y="70" width="50" height="15" fill="#dc2626" rx="2"/>
    <rect x="5" y="90" width="50" height="15" fill="#7c3aed" rx="2"/>
    
    <!-- LED Indicators -->
    <circle cx="45" cy="17" r="2" fill="#059669"/>
    <circle cx="50" cy="17" r="2" fill="#fbbf24"/>
    
    <circle cx="45" cy="37" r="2" fill="#059669"/>
    <circle cx="50" cy="37" r="2" fill="#059669"/>
    
    <circle cx="45" cy="57" r="2" fill="#dc2626"/>
    <circle cx="50" cy="57" r="2" fill="#fbbf24"/>
    
    <circle cx="45" cy="77" r="2" fill="#059669"/>
    <circle cx="50" cy="77" r="2" fill="#059669"/>
    
    <circle cx="45" cy="97" r="2" fill="#fbbf24"/>
    <circle cx="50" cy="97" r="2" fill="#059669"/>
  </g>
  
  <!-- Network Connections -->
  <g transform="translate(300, 120)">
    <!-- Router/Switch -->
    <rect x="0" y="20" width="50" height="25" fill="#374151" rx="3"/>
    <rect x="5" y="25" width="40" height="15" fill="#1e40af" rx="2"/>
    
    <!-- Ports -->
    <rect x="8" y="42" width="6" height="4" fill="#6b7280"/>
    <rect x="16" y="42" width="6" height="4" fill="#6b7280"/>
    <rect x="24" y="42" width="6" height="4" fill="#6b7280"/>
    <rect x="32" y="42" width="6" height="4" fill="#6b7280"/>
    
    <!-- Antenna -->
    <rect x="23" y="10" width="2" height="12" fill="#374151"/>
    <circle cx="24" cy="8" r="3" fill="none" stroke="#fbbf24" stroke-width="1"/>
    <circle cx="24" cy="8" r="6" fill="none" stroke="#fbbf24" stroke-width="1" opacity="0.5"/>
  </g>
  
  <!-- Programming Languages -->
  <g transform="translate(50, 200)">
    <!-- Code Blocks -->
    <rect x="0" y="0" width="80" height="60" fill="#1e40af" opacity="0.8" rx="5"/>
    <text x="40" y="20" text-anchor="middle" font-family="monospace" font-size="12" font-weight="bold" fill="#ffffff">Python</text>
    <text x="40" y="35" text-anchor="middle" font-family="monospace" font-size="10" fill="#fbbf24">def hello():</text>
    <text x="40" y="50" text-anchor="middle" font-family="monospace" font-size="10" fill="#fbbf24">  print("Hi")</text>
    
    <rect x="100" y="0" width="80" height="60" fill="#059669" opacity="0.8" rx="5"/>
    <text x="140" y="20" text-anchor="middle" font-family="monospace" font-size="12" font-weight="bold" fill="#ffffff">Java</text>
    <text x="140" y="35" text-anchor="middle" font-family="monospace" font-size="10" fill="#fbbf24">public class</text>
    <text x="140" y="50" text-anchor="middle" font-family="monospace" font-size="10" fill="#fbbf24">Main { }</text>
    
    <rect x="200" y="0" width="80" height="60" fill="#dc2626" opacity="0.8" rx="5"/>
    <text x="240" y="20" text-anchor="middle" font-family="monospace" font-size="12" font-weight="bold" fill="#ffffff">C++</text>
    <text x="240" y="35" text-anchor="middle" font-family="monospace" font-size="10" fill="#fbbf24">#include</text>
    <text x="240" y="50" text-anchor="middle" font-family="monospace" font-size="10" fill="#fbbf24">iostream</text>
  </g>
  
  <!-- Database -->
  <g transform="translate(320, 200)">
    <!-- Database Cylinder -->
    <ellipse cx="30" cy="15" rx="25" ry="8" fill="#7c3aed"/>
    <rect x="5" y="15" width="50" height="30" fill="#7c3aed"/>
    <ellipse cx="30" cy="45" rx="25" ry="8" fill="#5b21b6"/>
    
    <!-- Data Lines -->
    <ellipse cx="30" cy="25" rx="20" ry="6" fill="none" stroke="#fbbf24" stroke-width="1"/>
    <ellipse cx="30" cy="35" rx="20" ry="6" fill="none" stroke="#fbbf24" stroke-width="1"/>
    
    <!-- SQL Symbol -->
    <text x="30" y="32" text-anchor="middle" font-family="monospace" font-size="10" font-weight="bold" fill="#ffffff">SQL</text>
  </g>
  
  <!-- Cloud Computing -->
  <g transform="translate(150, 50)">
    <!-- Cloud -->
    <ellipse cx="30" cy="20" rx="15" ry="8" fill="#ffffff" opacity="0.8"/>
    <ellipse cx="20" cy="25" rx="12" ry="6" fill="#ffffff" opacity="0.8"/>
    <ellipse cx="40" cy="25" rx="12" ry="6" fill="#ffffff" opacity="0.8"/>
    <ellipse cx="30" cy="30" rx="18" ry="8" fill="#ffffff" opacity="0.8"/>
    
    <!-- Cloud Services -->
    <circle cx="25" cy="22" r="3" fill="#1e40af"/>
    <circle cx="30" cy="22" r="3" fill="#059669"/>
    <circle cx="35" cy="22" r="3" fill="#fbbf24"/>
    
    <!-- Connection Lines -->
    <line x1="30" y1="38" x2="30" y2="50" stroke="#6b7280" stroke-width="2" stroke-dasharray="3,3"/>
  </g>
  
  <!-- Mobile Development -->
  <g transform="translate(320, 50)">
    <!-- Smartphone -->
    <rect x="0" y="0" width="30" height="50" fill="#374151" rx="5"/>
    <rect x="3" y="5" width="24" height="35" fill="#1e40af" rx="2"/>
    <circle cx="15" cy="45" r="3" fill="#6b7280"/>
    
    <!-- App Icons -->
    <rect x="6" y="8" width="6" height="6" fill="#fbbf24" rx="1"/>
    <rect x="14" y="8" width="6" height="6" fill="#059669" rx="1"/>
    <rect x="22" y="8" width="6" height="6" fill="#dc2626" rx="1"/>
    
    <rect x="6" y="16" width="6" height="6" fill="#7c3aed" rx="1"/>
    <rect x="14" y="16" width="6" height="6" fill="#f59e0b" rx="1"/>
    <rect x="22" y="16" width="6" height="6" fill="#10b981" rx="1"/>
  </g>
  
  <!-- Decorative Elements -->
  <g opacity="0.4">
    <circle cx="30" cy="30" r="6" fill="#1e40af"/>
    <rect x="350" y="250" width="10" height="10" fill="#fbbf24" transform="rotate(45 355 255)"/>
    <polygon points="370,20 380,10 390,20 380,30" fill="#7c3aed"/>
  </g>
</svg>
