<svg width="400" height="300" viewBox="0 0 400 300" fill="none" xmlns="http://www.w3.org/2000/svg">
  <!-- Background Gradient -->
  <defs>
    <linearGradient id="envBg" x1="0%" y1="0%" x2="100%" y2="100%">
      <stop offset="0%" style="stop-color:#059669;stop-opacity:0.1" />
      <stop offset="100%" style="stop-color:#1e40af;stop-opacity:0.1" />
    </linearGradient>
  </defs>
  
  <!-- Background -->
  <rect width="400" height="300" fill="url(#envBg)"/>
  
  <!-- Earth/Globe -->
  <g transform="translate(50, 50)">
    <circle cx="50" cy="50" r="40" fill="#1e40af" opacity="0.8"/>
    <!-- Continents -->
    <path d="M20,40 Q30,30 40,40 Q50,35 60,45 Q70,40 80,50 Q70,60 60,55 Q50,65 40,60 Q30,70 20,60 Z" fill="#059669"/>
    <path d="M25,70 Q35,65 45,70 Q55,75 65,70" fill="#059669"/>
    <!-- Atmosphere -->
    <circle cx="50" cy="50" r="45" fill="none" stroke="#fbbf24" stroke-width="2" opacity="0.6"/>
  </g>
  
  <!-- Trees and Forest -->
  <g transform="translate(150, 120)">
    <!-- Tree 1 -->
    <rect x="15" y="60" width="6" height="30" fill="#92400e"/>
    <circle cx="18" cy="50" r="15" fill="#059669"/>
    
    <!-- Tree 2 -->
    <rect x="35" y="65" width="6" height="25" fill="#92400e"/>
    <circle cx="38" cy="55" r="12" fill="#059669"/>
    
    <!-- Tree 3 -->
    <rect x="55" y="58" width="6" height="32" fill="#92400e"/>
    <circle cx="58" cy="48" r="18" fill="#059669"/>
    
    <!-- Tree 4 -->
    <rect x="75" y="62" width="6" height="28" fill="#92400e"/>
    <circle cx="78" cy="52" r="14" fill="#059669"/>
    
    <!-- Grass -->
    <rect x="0" y="85" width="100" height="10" fill="#059669" opacity="0.6"/>
  </g>
  
  <!-- Renewable Energy -->
  <g transform="translate(280, 80)">
    <!-- Wind Turbine -->
    <rect x="18" y="40" width="4" height="80" fill="#6b7280"/>
    <!-- Blades -->
    <path d="M20,40 L10,20 L20,35 Z" fill="#ffffff"/>
    <path d="M20,40 L35,25 L25,40 Z" fill="#ffffff"/>
    <path d="M20,40 L30,55 L15,45 Z" fill="#ffffff"/>
    <circle cx="20" cy="40" r="3" fill="#374151"/>
    
    <!-- Solar Panel -->
    <g transform="translate(40, 60)">
      <rect x="0" y="0" width="40" height="25" fill="#1e40af"/>
      <!-- Grid lines -->
      <line x1="10" y1="0" x2="10" y2="25" stroke="#fbbf24" stroke-width="1"/>
      <line x1="20" y1="0" x2="20" y2="25" stroke="#fbbf24" stroke-width="1"/>
      <line x1="30" y1="0" x2="30" y2="25" stroke="#fbbf24" stroke-width="1"/>
      <line x1="0" y1="8" x2="40" y2="8" stroke="#fbbf24" stroke-width="1"/>
      <line x1="0" y1="17" x2="40" y2="17" stroke="#fbbf24" stroke-width="1"/>
    </g>
  </g>
  
  <!-- Water and Marine Life -->
  <g transform="translate(50, 200)">
    <!-- Water Waves -->
    <path d="M0,20 Q20,10 40,20 Q60,30 80,20 Q100,10 120,20" stroke="#1e40af" stroke-width="4" fill="none"/>
    <path d="M0,30 Q20,20 40,30 Q60,40 80,30 Q100,20 120,30" stroke="#1e40af" stroke-width="3" fill="none" opacity="0.7"/>
    
    <!-- Fish -->
    <ellipse cx="30" cy="40" rx="8" ry="4" fill="#fbbf24"/>
    <polygon points="22,40 18,38 18,42" fill="#fbbf24"/>
    <circle cx="32" cy="39" r="1" fill="#1e40af"/>
    
    <ellipse cx="70" cy="45" rx="6" ry="3" fill="#059669"/>
    <polygon points="64,45 61,44 61,46" fill="#059669"/>
    <circle cx="71" cy="44" r="1" fill="#1e40af"/>
    
    <!-- Coral -->
    <path d="M90,50 Q95,40 100,50 Q105,35 110,50" stroke="#dc2626" stroke-width="3" fill="none"/>
    <path d="M95,50 Q100,40 105,50" stroke="#fbbf24" stroke-width="2" fill="none"/>
  </g>
  
  <!-- Recycling Symbol -->
  <g transform="translate(300, 180)">
    <path d="M20,10 L30,25 L15,25 Z" fill="#059669"/>
    <path d="M35,20 L25,35 L40,35 Z" fill="#059669"/>
    <path d="M10,30 L25,15 L10,15 Z" fill="#059669"/>
    <!-- Arrows -->
    <path d="M25,15 Q35,5 45,15" stroke="#059669" stroke-width="2" fill="none" marker-end="url(#greenArrow)"/>
    <path d="M35,30 Q25,40 15,30" stroke="#059669" stroke-width="2" fill="none" marker-end="url(#greenArrow)"/>
    <path d="M15,20 Q5,30 15,40" stroke="#059669" stroke-width="2" fill="none" marker-end="url(#greenArrow)"/>
    
    <defs>
      <marker id="greenArrow" markerWidth="8" markerHeight="6" refX="7" refY="3" orient="auto">
        <polygon points="0 0, 8 3, 0 6" fill="#059669"/>
      </marker>
    </defs>
  </g>
  
  <!-- Laboratory Equipment -->
  <g transform="translate(200, 200)">
    <!-- Test Tubes with Environmental Samples -->
    <rect x="0" y="20" width="4" height="25" fill="#374151" rx="2"/>
    <rect x="0" y="20" width="4" height="15" fill="#059669" rx="2"/>
    
    <rect x="8" y="18" width="4" height="27" fill="#374151" rx="2"/>
    <rect x="8" y="18" width="4" height="18" fill="#1e40af" rx="2"/>
    
    <rect x="16" y="22" width="4" height="23" fill="#374151" rx="2"/>
    <rect x="16" y="22" width="4" height="12" fill="#fbbf24" rx="2"/>
    
    <!-- Microscope -->
    <rect x="30" y="35" width="20" height="6" fill="#374151"/>
    <circle cx="40" cy="28" r="6" fill="#1e40af"/>
    <rect x="37" y="15" width="6" height="13" fill="#374151"/>
    <circle cx="40" cy="12" r="4" fill="#fbbf24"/>
  </g>
  
  <!-- Air Quality Indicators -->
  <g transform="translate(320, 50)">
    <!-- Clean Air -->
    <circle cx="15" cy="15" r="8" fill="#059669" opacity="0.3"/>
    <circle cx="15" cy="15" r="5" fill="#059669" opacity="0.5"/>
    <circle cx="15" cy="15" r="2" fill="#059669"/>
    
    <!-- Polluted Air -->
    <g transform="translate(0, 40)">
      <circle cx="15" cy="15" r="8" fill="#dc2626" opacity="0.3"/>
      <circle cx="15" cy="15" r="5" fill="#dc2626" opacity="0.5"/>
      <circle cx="15" cy="15" r="2" fill="#dc2626"/>
      <!-- Smoke particles -->
      <circle cx="10" cy="10" r="1" fill="#6b7280"/>
      <circle cx="20" cy="12" r="1" fill="#6b7280"/>
      <circle cx="18" cy="8" r="1" fill="#6b7280"/>
    </g>
  </g>
  
  <!-- Environmental Protection Shield -->
  <g transform="translate(150, 50)">
    <path d="M20,10 L35,15 L35,30 C35,35 20,45 20,45 C20,45 5,35 5,30 L5,15 Z" fill="#059669" opacity="0.8"/>
    <!-- Leaf inside shield -->
    <path d="M20,20 Q25,15 30,20 Q25,30 20,25 Q15,30 10,20 Q15,15 20,20 Z" fill="#fbbf24"/>
    <path d="M20,20 L20,30" stroke="#059669" stroke-width="1"/>
  </g>
  
  <!-- Decorative Elements -->
  <g opacity="0.4">
    <circle cx="30" cy="30" r="6" fill="#059669"/>
    <rect x="350" y="250" width="10" height="10" fill="#fbbf24" transform="rotate(45 355 255)"/>
    <polygon points="370,20 380,10 390,20 380,30" fill="#1e40af"/>
  </g>
</svg>
