<svg width="400" height="300" viewBox="0 0 400 300" fill="none" xmlns="http://www.w3.org/2000/svg">
  <!-- Background Gradient -->
  <defs>
    <linearGradient id="generalBg" x1="0%" y1="0%" x2="100%" y2="100%">
      <stop offset="0%" style="stop-color:#1e40af;stop-opacity:0.1" />
      <stop offset="50%" style="stop-color:#fbbf24;stop-opacity:0.1" />
      <stop offset="100%" style="stop-color:#059669;stop-opacity:0.1" />
    </linearGradient>
  </defs>
  
  <!-- Background -->
  <rect width="400" height="300" fill="url(#generalBg)"/>
  
  <!-- University Building -->
  <g transform="translate(100, 80)">
    <rect x="0" y="40" width="200" height="120" fill="#1e40af" opacity="0.8" rx="5"/>
    
    <!-- Columns -->
    <rect x="20" y="60" width="12" height="100" fill="#ffffff" opacity="0.9"/>
    <rect x="40" y="60" width="12" height="100" fill="#ffffff" opacity="0.9"/>
    <rect x="60" y="60" width="12" height="100" fill="#ffffff" opacity="0.9"/>
    <rect x="80" y="60" width="12" height="100" fill="#ffffff" opacity="0.9"/>
    <rect x="100" y="60" width="12" height="100" fill="#ffffff" opacity="0.9"/>
    <rect x="120" y="60" width="12" height="100" fill="#ffffff" opacity="0.9"/>
    <rect x="140" y="60" width="12" height="100" fill="#ffffff" opacity="0.9"/>
    <rect x="160" y="60" width="12" height="100" fill="#ffffff" opacity="0.9"/>
    
    <!-- Roof -->
    <polygon points="0,40 100,10 200,40" fill="#dc2626"/>
    
    <!-- Main Entrance -->
    <rect x="80" y="130" width="40" height="30" fill="#374151"/>
    <rect x="85" y="135" width="30" height="25" fill="#6b7280"/>
    
    <!-- Windows -->
    <rect x="30" y="80" width="15" height="20" fill="#fbbf24" opacity="0.8"/>
    <rect x="50" y="80" width="15" height="20" fill="#fbbf24" opacity="0.8"/>
    <rect x="70" y="80" width="15" height="20" fill="#fbbf24" opacity="0.8"/>
    <rect x="115" y="80" width="15" height="20" fill="#fbbf24" opacity="0.8"/>
    <rect x="135" y="80" width="15" height="20" fill="#fbbf24" opacity="0.8"/>
    <rect x="155" y="80" width="15" height="20" fill="#fbbf24" opacity="0.8"/>
    
    <rect x="30" y="105" width="15" height="20" fill="#fbbf24" opacity="0.6"/>
    <rect x="50" y="105" width="15" height="20" fill="#fbbf24" opacity="0.6"/>
    <rect x="70" y="105" width="15" height="20" fill="#fbbf24" opacity="0.6"/>
    <rect x="115" y="105" width="15" height="20" fill="#fbbf24" opacity="0.6"/>
    <rect x="135" y="105" width="15" height="20" fill="#fbbf24" opacity="0.6"/>
    <rect x="155" y="105" width="15" height="20" fill="#fbbf24" opacity="0.6"/>
    
    <!-- University Name Banner -->
    <rect x="10" y="50" width="180" height="15" fill="#fbbf24" opacity="0.9"/>
    <text x="100" y="60" text-anchor="middle" font-family="serif" font-size="12" font-weight="bold" fill="#1e40af">HUNRE UNIVERSITY</text>
  </g>
  
  <!-- Academic Symbols -->
  <g transform="translate(50, 200)">
    <!-- Books -->
    <rect x="0" y="20" width="40" height="6" fill="#dc2626"/>
    <rect x="5" y="14" width="30" height="6" fill="#1e40af"/>
    <rect x="10" y="8" width="20" height="6" fill="#059669"/>
    <rect x="15" y="2" width="10" height="6" fill="#fbbf24"/>
    
    <!-- Graduation Cap -->
    <rect x="60" y="15" width="30" height="5" fill="#1e40af"/>
    <polygon points="60,15 75,5 90,15" fill="#1e40af"/>
    <rect x="88" y="5" width="1" height="10" fill="#fbbf24"/>
    <rect x="89" y="5" width="6" height="3" fill="#fbbf24"/>
    
    <!-- Globe -->
    <circle cx="130" cy="15" r="12" fill="#1e40af" opacity="0.3"/>
    <circle cx="130" cy="15" r="10" fill="none" stroke="#1e40af" stroke-width="2"/>
    <path d="M120,15 Q130,5 140,15 Q130,25 120,15" fill="#059669" opacity="0.6"/>
    <line x1="120" y1="15" x2="140" y2="15" stroke="#1e40af" stroke-width="1"/>
    <line x1="130" y1="5" x2="130" y2="25" stroke="#1e40af" stroke-width="1"/>
  </g>
  
  <!-- Research Equipment -->
  <g transform="translate(250, 200)">
    <!-- Microscope -->
    <rect x="15" y="35" width="20" height="6" fill="#374151"/>
    <circle cx="25" cy="28" r="6" fill="#1e40af"/>
    <rect x="22" y="15" width="6" height="13" fill="#374151"/>
    <circle cx="25" cy="12" r="4" fill="#fbbf24"/>
    
    <!-- Test Tubes -->
    <rect x="50" y="25" width="4" height="20" fill="#374151" rx="2"/>
    <rect x="50" y="25" width="4" height="12" fill="#dc2626" rx="2"/>
    
    <rect x="58" y="20" width="4" height="25" fill="#374151" rx="2"/>
    <rect x="58" y="20" width="4" height="15" fill="#059669" rx="2"/>
    
    <rect x="66" y="28" width="4" height="17" fill="#374151" rx="2"/>
    <rect x="66" y="28" width="4" height="10" fill="#fbbf24" rx="2"/>
  </g>
  
  <!-- Students -->
  <g transform="translate(50, 120)">
    <!-- Student 1 -->
    <circle cx="15" cy="15" r="8" fill="#fbbf24"/>
    <rect x="10" y="23" width="10" height="20" fill="#1e40af" rx="2"/>
    <!-- Backpack -->
    <rect x="20" y="25" width="6" height="12" fill="#dc2626" rx="1"/>
    
    <!-- Student 2 -->
    <g transform="translate(30, 0)">
      <circle cx="15" cy="15" r="8" fill="#fbbf24"/>
      <rect x="10" y="23" width="10" height="20" fill="#059669" rx="2"/>
      <!-- Book -->
      <rect x="20" y="28" width="8" height="6" fill="#374151"/>
    </g>
    
    <!-- Student 3 -->
    <g transform="translate(60, 0)">
      <circle cx="15" cy="15" r="8" fill="#fbbf24"/>
      <rect x="10" y="23" width="10" height="20" fill="#7c3aed" rx="2"/>
      <!-- Laptop -->
      <rect x="20" y="26" width="10" height="8" fill="#374151" rx="1"/>
      <rect x="21" y="27" width="8" height="6" fill="#1e40af"/>
    </g>
  </g>
  
  <!-- Knowledge Tree -->
  <g transform="translate(320, 100)">
    <!-- Tree Trunk -->
    <rect x="15" y="80" width="10" height="40" fill="#92400e"/>
    
    <!-- Tree Crown -->
    <circle cx="20" cy="70" r="25" fill="#059669" opacity="0.8"/>
    
    <!-- Knowledge Symbols in Tree -->
    <text x="20" y="60" text-anchor="middle" font-family="serif" font-size="8" fill="#fbbf24">∑</text>
    <text x="15" y="70" text-anchor="middle" font-family="serif" font-size="8" fill="#fbbf24">π</text>
    <text x="25" y="70" text-anchor="middle" font-family="serif" font-size="8" fill="#fbbf24">∞</text>
    <text x="20" y="80" text-anchor="middle" font-family="serif" font-size="8" fill="#fbbf24">∫</text>
    
    <!-- Roots -->
    <path d="M15,120 Q10,130 5,125" stroke="#92400e" stroke-width="3" fill="none"/>
    <path d="M25,120 Q30,130 35,125" stroke="#92400e" stroke-width="3" fill="none"/>
  </g>
  
  <!-- Academic Achievements -->
  <g transform="translate(150, 50)">
    <!-- Trophy -->
    <rect x="15" y="25" width="10" height="15" fill="#fbbf24"/>
    <ellipse cx="20" cy="20" rx="8" ry="5" fill="#fbbf24"/>
    <rect x="18" y="40" width="4" height="8" fill="#92400e"/>
    <rect x="12" y="48" width="16" height="4" fill="#92400e"/>
    
    <!-- Stars -->
    <polygon points="45,15 47,20 52,20 48,23 50,28 45,25 40,28 42,23 38,20 43,20" fill="#fbbf24"/>
    <polygon points="65,20 66,23 69,23 67,25 68,28 65,26 62,28 63,25 61,23 64,23" fill="#fbbf24"/>
  </g>
  
  <!-- Decorative Elements -->
  <g opacity="0.4">
    <circle cx="30" cy="50" r="8" fill="#1e40af"/>
    <rect x="350" y="250" width="12" height="12" fill="#fbbf24" transform="rotate(45 356 256)"/>
    <polygon points="370,30 380,20 390,30 380,40" fill="#059669"/>
  </g>
</svg>
