<svg width="400" height="250" viewBox="0 0 400 250" fill="none" xmlns="http://www.w3.org/2000/svg">
  <!-- Background Gradient -->
  <defs>
    <linearGradient id="healthBg" x1="0%" y1="0%" x2="100%" y2="100%">
      <stop offset="0%" style="stop-color:#059669;stop-opacity:0.1" />
      <stop offset="100%" style="stop-color:#1e40af;stop-opacity:0.1" />
    </linearGradient>
  </defs>
  
  <!-- Background -->
  <rect width="400" height="250" fill="url(#healthBg)"/>
  
  <!-- Medical Cross -->
  <g transform="translate(50, 50)">
    <rect x="40" y="20" width="20" height="60" fill="#dc2626" rx="2"/>
    <rect x="20" y="40" width="60" height="20" fill="#dc2626" rx="2"/>
    <circle cx="50" cy="50" r="35" fill="none" stroke="#dc2626" stroke-width="3"/>
  </g>
  
  <!-- Hospital/Medical Building -->
  <g transform="translate(150, 80)">
    <rect x="0" y="40" width="120" height="100" fill="#1e40af" opacity="0.8" rx="5"/>
    <!-- Windows -->
    <rect x="15" y="55" width="15" height="20" fill="#fbbf24" opacity="0.8"/>
    <rect x="35" y="55" width="15" height="20" fill="#fbbf24" opacity="0.8"/>
    <rect x="55" y="55" width="15" height="20" fill="#fbbf24" opacity="0.8"/>
    <rect x="75" y="55" width="15" height="20" fill="#fbbf24" opacity="0.8"/>
    <rect x="95" y="55" width="15" height="20" fill="#fbbf24" opacity="0.8"/>
    
    <rect x="15" y="85" width="15" height="20" fill="#fbbf24" opacity="0.6"/>
    <rect x="35" y="85" width="15" height="20" fill="#fbbf24" opacity="0.6"/>
    <rect x="55" y="85" width="15" height="20" fill="#fbbf24" opacity="0.6"/>
    <rect x="75" y="85" width="15" height="20" fill="#fbbf24" opacity="0.6"/>
    <rect x="95" y="85" width="15" height="20" fill="#fbbf24" opacity="0.6"/>
    
    <!-- Entrance -->
    <rect x="50" y="115" width="20" height="25" fill="#374151"/>
    
    <!-- Medical Cross on Building -->
    <rect x="55" y="25" width="4" height="12" fill="#dc2626"/>
    <rect x="51" y="29" width="12" height="4" fill="#dc2626"/>
  </g>
  
  <!-- Medical Equipment -->
  <g transform="translate(300, 100)">
    <!-- Stethoscope -->
    <circle cx="20" cy="20" r="8" fill="#374151"/>
    <circle cx="20" cy="20" r="5" fill="#1e40af"/>
    <path d="M20,28 Q15,40 10,50 Q8,55 12,55 Q16,55 14,50 Q19,40 24,28" fill="none" stroke="#374151" stroke-width="3"/>
    <circle cx="12" cy="55" r="3" fill="#374151"/>
    
    <!-- Thermometer -->
    <rect x="40" y="10" width="3" height="40" fill="#dc2626" rx="1"/>
    <circle cx="41.5" cy="52" r="4" fill="#dc2626"/>
    <rect x="40" y="15" width="3" height="20" fill="#fbbf24"/>
  </g>
  
  <!-- Medical Professionals -->
  <g transform="translate(80, 160)">
    <!-- Doctor -->
    <circle cx="20" cy="15" r="8" fill="#fbbf24"/>
    <rect x="15" y="23" width="10" height="25" fill="#ffffff" rx="2"/>
    <!-- Stethoscope around neck -->
    <path d="M18,25 Q20,30 22,25" fill="none" stroke="#374151" stroke-width="2"/>
    
    <!-- Nurse -->
    <g transform="translate(40, 0)">
      <circle cx="20" cy="15" r="8" fill="#fbbf24"/>
      <!-- Nurse cap -->
      <rect x="15" y="10" width="10" height="3" fill="#ffffff"/>
      <rect x="17" y="8" width="6" height="2" fill="#dc2626"/>
      <rect x="15" y="23" width="10" height="25" fill="#ffffff" rx="2"/>
    </g>
  </g>
  
  <!-- Medical Symbols -->
  <g transform="translate(320, 50)">
    <!-- Pills -->
    <ellipse cx="15" cy="15" rx="6" ry="10" fill="#fbbf24"/>
    <ellipse cx="15" cy="15" rx="6" ry="5" fill="#dc2626"/>
    
    <ellipse cx="35" cy="20" rx="6" ry="10" fill="#1e40af"/>
    <ellipse cx="35" cy="20" rx="6" ry="5" fill="#ffffff"/>
    
    <!-- Syringe -->
    <rect x="10" y="35" width="20" height="4" fill="#6b7280" rx="2"/>
    <rect x="30" y="36" width="8" height="2" fill="#374151"/>
    <polygon points="38,37 42,35 42,39" fill="#6b7280"/>
  </g>
  
  <!-- Health Icons -->
  <g transform="translate(50, 180)">
    <!-- Heart -->
    <path d="M20,15 C20,10 15,5 10,5 C5,5 0,10 0,15 C0,25 20,35 20,35 C20,35 40,25 40,15 C40,10 35,5 30,5 C25,5 20,10 20,15 Z" fill="#dc2626"/>
    
    <!-- Shield (Protection) -->
    <g transform="translate(60, 0)">
      <path d="M15,0 L30,5 L30,20 C30,25 15,35 15,35 C15,35 0,25 0,20 L0,5 Z" fill="#059669"/>
      <path d="M8,15 L13,20 L22,10" fill="none" stroke="#ffffff" stroke-width="2" stroke-linecap="round"/>
    </g>
  </g>
  
  <!-- Warning/Alert Elements -->
  <g transform="translate(300, 180)">
    <!-- Warning Triangle -->
    <polygon points="15,5 25,20 5,20" fill="#fbbf24"/>
    <text x="15" y="17" text-anchor="middle" font-family="sans-serif" font-size="12" font-weight="bold" fill="#1e40af">!</text>
    
    <!-- Virus/Bacteria -->
    <g transform="translate(40, 0)">
      <circle cx="15" cy="15" r="8" fill="#dc2626" opacity="0.7"/>
      <circle cx="12" cy="12" r="2" fill="#fbbf24"/>
      <circle cx="18" cy="12" r="2" fill="#fbbf24"/>
      <circle cx="15" cy="18" r="2" fill="#fbbf24"/>
      <!-- Spikes -->
      <rect x="14" y="5" width="2" height="4" fill="#dc2626"/>
      <rect x="14" y="21" width="2" height="4" fill="#dc2626"/>
      <rect x="5" y="14" width="4" height="2" fill="#dc2626"/>
      <rect x="21" y="14" width="4" height="2" fill="#dc2626"/>
    </g>
  </g>
  
  <!-- Decorative Elements -->
  <g opacity="0.3">
    <circle cx="350" cy="30" r="10" fill="#059669"/>
    <rect x="20" y="20" width="15" height="15" fill="#fbbf24" transform="rotate(45 27.5 27.5)"/>
    <polygon points="370,200 380,190 390,200 380,210" fill="#1e40af"/>
  </g>
</svg>
