<svg width="400" height="300" viewBox="0 0 400 300" xmlns="http://www.w3.org/2000/svg">
  <defs>
    <linearGradient id="printingGrad" x1="0%" y1="0%" x2="100%" y2="100%">
      <stop offset="0%" style="stop-color:#eab308;stop-opacity:1" />
      <stop offset="100%" style="stop-color:#ca8a04;stop-opacity:1" />
    </linearGradient>
  </defs>
  
  <!-- Background -->
  <rect width="400" height="300" fill="url(#printingGrad)" opacity="0.1"/>
  
  <!-- Printer Base -->
  <rect x="80" y="120" width="240" height="120" fill="#6b7280" rx="8"/>
  <rect x="90" y="130" width="220" height="100" fill="#9ca3af" rx="4"/>
  
  <!-- Paper Tray -->
  <rect x="100" y="200" width="200" height="30" fill="#f3f4f6" rx="2"/>
  <rect x="105" y="205" width="190" height="20" fill="#ffffff" rx="1"/>
  
  <!-- Control Panel -->
  <rect x="250" y="140" width="60" height="40" fill="#374151" rx="4"/>
  <circle cx="265" cy="155" r="4" fill="#22c55e"/>
  <circle cx="280" cy="155" r="4" fill="#eab308"/>
  <circle cx="295" cy="155" r="4" fill="#ef4444"/>
  <rect x="255" y="165" width="50" height="10" fill="#1f2937" rx="2"/>
  
  <!-- Paper Output -->
  <rect x="120" y="90" width="160" height="30" fill="#ffffff" rx="2"/>
  <rect x="125" y="95" width="150" height="20" fill="#f9fafb" rx="1"/>
  
  <!-- Printed Pages -->
  <g transform="translate(140,60)">
    <rect x="0" y="0" width="120" height="25" fill="#ffffff" rx="2"/>
    <rect x="5" y="5" width="110" height="3" fill="#eab308"/>
    <rect x="5" y="10" width="80" fill="#374151" height="2"/>
    <rect x="5" y="14" width="100" fill="#374151" height="2"/>
    <rect x="5" y="18" width="60" fill="#374151" height="2"/>
  </g>
  
  <!-- Color Cartridges -->
  <g transform="translate(110,150)">
    <rect x="0" y="0" width="15" height="25" fill="#ef4444" rx="2"/>
    <rect x="20" y="0" width="15" height="25" fill="#22c55e" rx="2"/>
    <rect x="40" y="0" width="15" height="25" fill="#3b82f6" rx="2"/>
    <rect x="60" y="0" width="15" height="25" fill="#eab308" rx="2"/>
  </g>
  
  <!-- Print Head -->
  <rect x="150" y="180" width="100" height="8" fill="#374151" rx="4"/>
  <rect x="160" y="175" width="80" height="5" fill="#6b7280" rx="2"/>
  
  <!-- Design Elements -->
  <g transform="translate(50,50)">
    <circle cx="0" cy="0" r="20" fill="none" stroke="#eab308" stroke-width="2" opacity="0.5"/>
    <path d="M-10,-10 L10,10 M10,-10 L-10,10" stroke="#eab308" stroke-width="2" opacity="0.5"/>
  </g>
  
  <g transform="translate(350,80)">
    <rect x="-15" y="-15" width="30" height="30" fill="none" stroke="#ca8a04" stroke-width="2" opacity="0.5"/>
    <circle cx="0" cy="0" r="8" fill="#ca8a04" opacity="0.3"/>
  </g>
  
  <!-- Typography Elements -->
  <g transform="translate(320,200)" opacity="0.4">
    <text x="0" y="0" font-family="serif" font-size="24" fill="#ca8a04" font-weight="bold">Aa</text>
    <text x="0" y="20" font-family="serif" font-size="16" fill="#ca8a04">123</text>
  </g>
  
  <!-- Decorative Grid -->
  <g stroke="#eab308" stroke-width="0.5" opacity="0.2" fill="none">
    <line x1="0" y1="75" x2="400" y2="75"/>
    <line x1="0" y1="150" x2="400" y2="150"/>
    <line x1="0" y1="225" x2="400" y2="225"/>
    <line x1="100" y1="0" x2="100" y2="300"/>
    <line x1="200" y1="0" x2="200" y2="300"/>
    <line x1="300" y1="0" x2="300" y2="300"/>
  </g>
</svg>
