<svg width="500" height="400" viewBox="0 0 500 400" fill="none" xmlns="http://www.w3.org/2000/svg">
  <!-- Background Gradient -->
  <defs>
    <linearGradient id="qualityBg" x1="0%" y1="0%" x2="100%" y2="100%">
      <stop offset="0%" style="stop-color:#1e40af;stop-opacity:0.1" />
      <stop offset="50%" style="stop-color:#fbbf24;stop-opacity:0.1" />
      <stop offset="100%" style="stop-color:#059669;stop-opacity:0.1" />
    </linearGradient>
    <radialGradient id="excellence" cx="50%" cy="30%" r="50%">
      <stop offset="0%" style="stop-color:#fbbf24;stop-opacity:0.3" />
      <stop offset="100%" style="stop-color:#fbbf24;stop-opacity:0" />
    </radialGradient>
  </defs>
  
  <!-- Background -->
  <rect width="500" height="400" fill="url(#qualityBg)"/>
  <rect width="500" height="400" fill="url(#excellence)"/>
  
  <!-- Central Excellence Symbol -->
  <g transform="translate(200, 80)">
    <!-- Award/Medal -->
    <circle cx="50" cy="50" r="35" fill="#fbbf24"/>
    <circle cx="50" cy="50" r="25" fill="#1e40af"/>
    <polygon points="50,35 55,45 65,45 57,52 60,62 50,57 40,62 43,52 35,45 45,45" fill="#fbbf24"/>
    
    <!-- Ribbon -->
    <rect x="45" y="85" width="10" height="30" fill="#dc2626"/>
    <polygon points="45,115 50,125 55,115" fill="#dc2626"/>
  </g>
  
  <!-- Academic Excellence Indicators -->
  <g transform="translate(50, 150)">
    <!-- Books Stack -->
    <rect x="0" y="40" width="60" height="8" fill="#1e40af"/>
    <rect x="5" y="32" width="50" height="8" fill="#dc2626"/>
    <rect x="10" y="24" width="40" height="8" fill="#059669"/>
    <rect x="15" y="16" width="30" height="8" fill="#fbbf24"/>
    <rect x="20" y="8" width="20" height="8" fill="#7c3aed"/>
    
    <!-- Graduation Cap on Top -->
    <rect x="25" y="0" width="20" height="4" fill="#1e40af"/>
    <polygon points="25,0 35,-8 45,0" fill="#1e40af"/>
    <rect x="43" y="-8" width="1" height="6" fill="#fbbf24"/>
    <rect x="44" y="-8" width="4" height="2" fill="#fbbf24"/>
  </g>
  
  <!-- Research and Innovation -->
  <g transform="translate(320, 120)">
    <!-- Laboratory Flask -->
    <path d="M30,20 L30,40 L20,60 Q20,65 25,65 L55,65 Q60,65 60,60 L50,40 L50,20 Z" fill="#374151"/>
    <path d="M32,25 L32,40 L25,55 Q25,58 28,58 L52,58 Q55,58 55,55 L48,40 L48,25 Z" fill="#1e40af" opacity="0.7"/>
    
    <!-- Bubbles -->
    <circle cx="35" cy="50" r="2" fill="#fbbf24" opacity="0.8"/>
    <circle cx="42" cy="45" r="1.5" fill="#fbbf24" opacity="0.8"/>
    <circle cx="38" cy="40" r="1" fill="#fbbf24" opacity="0.8"/>
    
    <!-- Microscope -->
    <g transform="translate(70, 20)">
      <rect x="15" y="35" width="20" height="6" fill="#374151"/>
      <circle cx="25" cy="28" r="6" fill="#1e40af"/>
      <rect x="22" y="15" width="6" height="13" fill="#374151"/>
      <circle cx="25" cy="12" r="4" fill="#fbbf24"/>
    </g>
  </g>
  
  <!-- Technology Integration -->
  <g transform="translate(80, 250)">
    <!-- Computer/Laptop -->
    <rect x="0" y="20" width="80" height="50" fill="#374151" rx="5"/>
    <rect x="5" y="25" width="70" height="40" fill="#1e40af" rx="3"/>
    <rect x="30" y="75" width="20" height="5" fill="#6b7280"/>
    
    <!-- Screen Content -->
    <rect x="10" y="30" width="60" height="3" fill="#fbbf24"/>
    <rect x="10" y="35" width="45" height="2" fill="#ffffff"/>
    <rect x="10" y="39" width="50" height="2" fill="#ffffff"/>
    <rect x="10" y="43" width="35" height="2" fill="#ffffff"/>
    
    <!-- Charts on Screen -->
    <rect x="50" y="47" width="4" height="8" fill="#059669"/>
    <rect x="55" y="52" width="4" height="3" fill="#059669"/>
    <rect x="60" y="49" width="4" height="6" fill="#059669"/>
    <rect x="65" y="45" width="4" height="10" fill="#059669"/>
  </g>
  
  <!-- Global Connections -->
  <g transform="translate(300, 250)">
    <!-- Globe -->
    <circle cx="40" cy="40" r="30" fill="#1e40af" opacity="0.3"/>
    <circle cx="40" cy="40" r="25" fill="none" stroke="#1e40af" stroke-width="2"/>
    
    <!-- Continents -->
    <path d="M20,35 Q30,25 40,35 Q50,30 60,40 Q50,50 40,45 Q30,55 20,45 Z" fill="#059669" opacity="0.6"/>
    
    <!-- Connection Lines -->
    <line x1="40" y1="15" x2="40" y2="5" stroke="#fbbf24" stroke-width="2"/>
    <line x1="65" y1="40" x2="75" y2="40" stroke="#fbbf24" stroke-width="2"/>
    <line x1="40" y1="65" x2="40" y2="75" stroke="#fbbf24" stroke-width="2"/>
    <line x1="15" y1="40" x2="5" y2="40" stroke="#fbbf24" stroke-width="2"/>
    
    <!-- Connection Nodes -->
    <circle cx="40" cy="5" r="3" fill="#fbbf24"/>
    <circle cx="75" cy="40" r="3" fill="#fbbf24"/>
    <circle cx="40" cy="75" r="3" fill="#fbbf24"/>
    <circle cx="5" cy="40" r="3" fill="#fbbf24"/>
  </g>
  
  <!-- Quality Metrics -->
  <g transform="translate(50, 320)">
    <!-- Progress Bars -->
    <rect x="0" y="0" width="100" height="8" fill="#e5e7eb" rx="4"/>
    <rect x="0" y="0" width="95" height="8" fill="#059669" rx="4"/>
    <text x="110" y="6" font-family="sans-serif" font-size="10" fill="#374151">Teaching Quality: 95%</text>
    
    <rect x="0" y="15" width="100" height="8" fill="#e5e7eb" rx="4"/>
    <rect x="0" y="15" width="88" height="8" fill="#1e40af" rx="4"/>
    <text x="110" y="21" font-family="sans-serif" font-size="10" fill="#374151">Research Output: 88%</text>
    
    <rect x="0" y="30" width="100" height="8" fill="#e5e7eb" rx="4"/>
    <rect x="0" y="30" width="92" height="8" fill="#fbbf24" rx="4"/>
    <text x="110" y="36" font-family="sans-serif" font-size="10" fill="#374151">Student Satisfaction: 92%</text>
    
    <rect x="0" y="45" width="100" height="8" fill="#e5e7eb" rx="4"/>
    <rect x="0" y="45" width="85" height="8" fill="#dc2626" rx="4"/>
    <text x="110" y="51" font-family="sans-serif" font-size="10" fill="#374151">Industry Partnership: 85%</text>
  </g>
  
  <!-- Innovation Symbols -->
  <g transform="translate(400, 150)">
    <!-- Light Bulb (Innovation) -->
    <circle cx="20" cy="25" r="12" fill="#fbbf24" opacity="0.8"/>
    <rect x="16" y="35" width="8" height="6" fill="#374151"/>
    <rect x="14" y="41" width="12" height="3" fill="#6b7280"/>
    
    <!-- Rays -->
    <line x1="8" y1="15" x2="4" y2="11" stroke="#fbbf24" stroke-width="2"/>
    <line x1="32" y1="15" x2="36" y2="11" stroke="#fbbf24" stroke-width="2"/>
    <line x1="8" y1="35" x2="4" y2="39" stroke="#fbbf24" stroke-width="2"/>
    <line x1="32" y1="35" x2="36" y2="39" stroke="#fbbf24" stroke-width="2"/>
    <line x1="5" y1="25" x2="1" y2="25" stroke="#fbbf24" stroke-width="2"/>
    <line x1="35" y1="25" x2="39" y2="25" stroke="#fbbf24" stroke-width="2"/>
  </g>
  
  <!-- Excellence Stars -->
  <g opacity="0.6">
    <polygon points="450,50 455,60 465,60 457,67 460,77 450,72 440,77 443,67 435,60 445,60" fill="#fbbf24"/>
    <polygon points="470,80 473,86 479,86 475,90 477,96 470,93 463,96 465,90 461,86 467,86" fill="#fbbf24"/>
    <polygon points="430,100 433,106 439,106 435,110 437,116 430,113 423,116 425,110 421,106 427,106" fill="#fbbf24"/>
  </g>
  
  <!-- Decorative Elements -->
  <g opacity="0.3">
    <circle cx="30" cy="50" r="8" fill="#1e40af"/>
    <rect x="450" y="300" width="15" height="15" fill="#059669" transform="rotate(45 457.5 307.5)"/>
    <polygon points="20,380 30,370 40,380 30,390" fill="#fbbf24"/>
  </g>
</svg>
